Coordinates
version=1
nRows=8
nColumns=36
inDegrees=yes

Units are S.I. units (second, meters, Newtons, ...)
If the header above contains a line with 'inDegrees', this indicates whether rotational values are in degrees (yes) or radians (no).

endheader
time	pelvis_tilt	pelvis_list	pelvis_rotation	pelvis_tx	pelvis_ty	pelvis_tz	hip_flexion_r	hip_adduction_r	hip_rotation_r	knee_angle_r	knee_angle_r_beta	ankle_angle_r	subtalar_angle_r	mtp_angle_r	hip_flexion_l	hip_adduction_l	hip_rotation_l	knee_angle_l	knee_angle_l_beta	ankle_angle_l	subtalar_angle_l	mtp_angle_l	lumbar_extension	lumbar_bending	lumbar_rotation	arm_flex_r	arm_add_r	arm_rot_r	elbow_flex_r	pro_sup_r	arm_flex_l	arm_add_l	arm_rot_l	elbow_flex_l	pro_sup_l
      0.00000000	     -0.96551911	      1.61074298	     -3.81708932	      0.20975778	      1.24151008	     -0.58846443	      1.25837904	     -0.79825874	     -3.30630336	      4.89639759	      0.08545826	      4.05283045	    -10.64671408	     -6.55955764	      1.16668273	      1.82602275	     -4.05218119	      7.40461297	      0.12923488	      3.78192121	     -5.93803388	     -6.55955764	     -9.49807223	     -2.42755049	      3.22795041	      0.19687716	    -13.69815115	     17.16433687	     21.93720717	     76.08254986	     -2.64923439	    -14.15589019	      6.97449620	     28.09002354	     79.93864505
      0.01666670	     -0.82344057	      1.60118781	     -4.17440877	      0.20991068	      1.24247557	     -0.58803646	      0.40552696	     -0.66918270	     -3.35206780	      3.55204768	      0.06199493	      4.20905319	    -10.20264648	     -6.78804864	      0.18963591	      2.15402134	     -4.24287566	      4.98803221	      0.08705759	      3.47230440	     -6.54017103	     -6.78804864	     -9.82520053	     -2.46497514	      4.35652347	      0.39133739	    -13.18828846	     17.57322917	     19.97529210	     77.07051497	     -0.96666775	    -13.54552684	      8.85171264	     24.29376586	     80.89175895
      0.03333330	     -1.97616343	      1.89759892	     -3.53534544	      0.21084617	      1.24258925	     -0.58769665	      0.70010015	     -0.56308050	     -3.24909643	      2.16804090	      0.03783945	      3.04959265	    -10.87757051	     -6.88120127	      1.10036793	      2.43315779	     -3.11379756	      4.28777869	      0.07483586	      2.87949800	     -5.90948222	     -6.88120127	     -8.66788569	     -2.73890207	      4.31931510	     -0.78202016	    -12.93148150	     17.76006860	     19.03634750	     75.78869502	     -0.28527731	    -13.49909050	      9.01236099	     22.83608979	     79.50766540
      0.05000000	     -4.03683854	      2.22472148	     -3.31894042	      0.20407859	      1.24039846	     -0.58439664	      2.98487264	     -0.59987749	     -3.55263115	      2.08021959	      0.03630668	      2.94537624	    -11.06130335	     -6.89616377	      3.36866820	      2.66133860	     -3.23011466	      4.24697704	      0.07412373	      2.68099660	     -5.41880116	     -6.89616377	     -6.54586873	     -3.04725573	      4.64347743	     -1.64343867	    -12.69700896	     18.05142098	     18.44320655	     76.01631528	      0.08458461	    -13.59702822	      9.43459241	     22.02878631	     79.90103454
      0.06666670	     -5.72120738	      2.61403476	     -3.46435812	      0.20517058	      1.24225728	     -0.58360322	      5.07529847	     -0.76257867	     -3.17229188	      2.28732083	      0.03992128	      2.83632180	    -11.75222853	     -6.97220150	      5.39362025	      2.95502064	     -3.80631034	      4.64512475	      0.08107272	      2.98238097	     -5.15691837	     -6.97220150	     -4.88670837	     -3.45134289	      5.57664556	     -2.22761110	    -12.38865010	     18.35617302	     17.67750978	     76.17291213	      0.88831761	    -13.54604017	     11.87096641	     19.82630938	     81.43793502
      0.08333330	     -7.22975673	      2.89057903	     -3.59156103	      0.20646359	      1.24346718	     -0.58302200	      7.09078137	     -0.88238405	     -3.15175289	      2.60914060	      0.04553809	      2.98538514	    -11.82738283	     -7.03781312	      7.21913592	      3.15170561	     -4.26683617	      4.99175341	      0.08712253	      3.63746562	     -4.57944383	     -7.03781312	     -3.64045168	     -3.75626514	      5.95732293	     -2.68287173	    -12.10980677	     18.47843944	     17.10972286	     75.01175829	      0.75769576	    -13.57220113	     12.19008231	     19.36076004	     80.35942133
      0.10000000	     -7.50475551	      2.91035113	     -3.47059017	      0.20695196	      1.24773563	     -0.58322800	      7.45058260	     -0.85936135	     -3.19942860	      2.51975673	      0.04397805	      2.96509749	    -11.84228173	     -7.03831642	      7.47963849	      3.18875173	     -4.39953794	      4.91317482	      0.08575108	      3.69856726	     -4.59495223	     -7.03831642	     -4.11694396	     -3.82056043	      5.98326104	     -2.83231981	    -12.06460115	     18.49372056	     17.04313030	     75.00823825	      0.64400448	    -13.58049011	     12.20914255	     19.28803361	     80.36412554
      0.11666670	     -8.94648921	      3.11771412	     -3.40633095	      0.20764782	      1.24139778	     -0.58316628	      9.35980176	     -0.95070912	     -3.32081047	      2.89894314	      0.05059610	      2.68708217	    -12.17228451	     -7.06637678	      9.40068081	      3.27026335	     -5.18304614	      5.58836788	      0.09753542	      4.29396704	     -3.80246470	     -7.06637678	     -3.00519375	     -4.08281498	      6.25873071	     -3.40338139	    -11.82678112	     18.16946345	     17.11410869	     73.26519560	      0.12700115	    -13.61083151	     12.14711048	     19.55563016	     78.42823245
